<svg width="486.196" height="486.196" xmlns="http://www.w3.org/2000/svg">

 <g>
  <title>background</title>
  <rect fill="none" id="canvas_background" height="402" width="582" y="-1" x="-1"/>
 </g>
 <g>
  <title>Layer 1</title>
  <g id="svg_1">
   <path fill="#ffffff" id="svg_2" d="m481.708,220.456l-228.8,-204.6c-0.4,-0.4 -0.8,-0.7 -1.3,-1c-5,-4.8 -13,-5 -18.3,-0.3l-228.8,204.6c-5.6,5 -6,13.5 -1.1,19.1c2.7,3 6.4,4.5 10.1,4.5c3.2,0 6.4,-1.1 9,-3.4l41.2,-36.9l0,7.2l0,106.8l0,124.6c0,18.7 15.2,34 34,34c0.3,0 0.5,0 0.8,0s0.5,0 0.8,0l70.6,0c17.6,0 31.9,-14.3 31.9,-31.9l0,-121.3c0,-2.7 2.2,-4.9 4.9,-4.9l72.9,0c2.7,0 4.9,2.2 4.9,4.9l0,121.3c0,17.6 14.3,31.9 31.9,31.9l72.2,0c19,0 34,-18.7 34,-42.6l0,-111.2l0,-34l0,-83.5l41.2,36.9c2.6,2.3 5.8,3.4 9,3.4c3.7,0 7.4,-1.5 10.1,-4.5c4.8,-5.6 4.3,-14.1 -1.2,-19.1zm-86.2,66.7l0,34l0,111.1c0,9.7 -4.8,15.6 -7,15.6l-72.2,0c-2.7,0 -4.9,-2.2 -4.9,-4.9l0,-121.1c0,-17.6 -14.3,-31.9 -31.9,-31.9l-72.9,0c-17.6,0 -31.9,14.3 -31.9,31.9l0,121.3c0,2.7 -2.2,4.9 -4.9,4.9l-70.6,0c-0.3,0 -0.5,0 -0.8,0s-0.5,0 -0.8,0c-3.8,0 -7,-3.1 -7,-7l0,-124.7l0,-106.8l0,-31.3l151.8,-135.6l153.1,136.9l0,107.6l0,0z"/>
  </g>
  <g id="svg_3"/>
  <g id="svg_4"/>
  <g id="svg_5"/>
  <g id="svg_6"/>
  <g id="svg_7"/>
  <g id="svg_8"/>
  <g id="svg_9"/>
  <g id="svg_10"/>
  <g id="svg_11"/>
  <g id="svg_12"/>
  <g id="svg_13"/>
  <g id="svg_14"/>
  <g id="svg_15"/>
  <g id="svg_16"/>
  <g id="svg_17"/>
 </g>
</svg>