<?xml version="1.0" encoding="utf-8"?>
<!-- Generator: Adobe Illustrator 23.0.1, SVG Export Plug-In . SVG Version: 6.00 Build 0)  -->
<svg version="1.1" id="Layer_1" xmlns="http://www.w3.org/2000/svg" xmlns:xlink="http://www.w3.org/1999/xlink" x="0px" y="0px"
	 viewBox="0 0 929.3 986" style="enable-background:new 0 0 929.3 986;" xml:space="preserve">
<style type="text/css">
	.st0{fill:#820263;}
	.st1{fill:#04A777;}
</style>
<title>logo</title>
<path class="st0" d="M730,533.9c5.7,12.2,10.6,24.6,14.6,37.3c4,12.6,4.6,24,1.9,34.3c-2.7,10.3-11.2,18.8-25.6,25.5
	c-13.4,6.3-25.2,7.5-35.4,3.8s-19.1-10.8-26.8-21.3c-8.2-11.4-15.4-23.7-21.3-36.5l-6.1-12.8c17,40.3,26.1,76.1,27.4,107.5
	c1.2,30.4-6.5,58.1-23.2,83c2.2,0.4,4.4,0.7,6.6,1c35.6,4.3,77-4.5,124.3-26.5c46.8-21.8,79.5-46.9,97.9-75.3
	c18.4-28.3,26.3-58.9,23.8-91.9c-2.5-32.9-12.1-67.2-28.6-102.6l-25.2-54l-135,62.9L730,533.9z"/>
<path class="st0" d="M670.6,96.6c-23.5-22.2-51.8-34.8-84.8-37.9c-33-3.1-72.7,6.2-119,27.8c-47.4,22.1-80.8,48-100.4,77.8
	c-1.3,1.9-2.4,3.8-3.7,5.8c29.8,3,55.8,14.4,78,34.4c23.1,20.7,44.4,50.3,64.1,88.7l-4.6-10c-5.8-12.3-10.5-24.9-14.4-37.9
	c-3.6-12.4-3.8-24.1-0.4-35.1s12.2-19.8,26.6-26.5c14.9-6.9,27.2-8.1,36.9-3.6s17.7,12.3,24.3,23c6.8,11.1,13,22.7,18.5,34.5
	l29.2,62.5l135-62.9l-25.2-54C714.2,147.6,694.2,118.8,670.6,96.6z"/>
<path class="st1" d="M340.5,927.9L40.7,285.1l162.7-75.9c56.1-26.2,103-39.5,140.8-40.1c37.8-0.5,69.9,11.2,96.6,35.1
	c26.6,24,51.1,59.8,73.3,107.4l108.8,233.3c22.5,48.1,34.4,90.4,35.9,126.8c1.5,36.3-9.9,68.8-34.2,97.6
	c-24.3,28.7-64.2,56-119.7,82L340.5,927.9z M436.7,763.3l22.2-10.4c21.7-10.1,35.8-20.6,42.4-31.3c6.6-10.8,8-23.1,4.6-36.9
	c-3.6-13.8-9.8-30.3-18.6-49.3L356.5,355.3c-8.8-19-17.5-33.8-25.9-44s-18.5-15.9-30.5-16.7c-11.9-0.9-28.6,3.7-49.7,13.6l-21.5,10
	L436.7,763.3z"/>
</svg>
