<?xml version="1.0" encoding="utf-8"?>
<!-- Generator: Adobe Illustrator 23.0.1, SVG Export Plug-In . SVG Version: 6.00 Build 0)  -->
<svg version="1.1" id="Layer_1" xmlns="http://www.w3.org/2000/svg" xmlns:xlink="http://www.w3.org/1999/xlink" x="0px" y="0px"
	 viewBox="0 0 929.3 986" style="enable-background:new 0 0 929.3 986;" xml:space="preserve">
<style type="text/css">
	.st0{fill:#820263;}
	.st1{fill:#04A777;}
</style>
<title>logo</title>
<path class="st0" d="M742.9,487c7.7,11,14.7,22.4,20.9,34.2c6.1,11.7,8.7,22.8,7.8,33.5c-0.9,10.6-7.8,20.5-20.8,29.6
	c-12.1,8.5-23.5,11.8-34.2,9.9c-10.7-1.9-20.7-7.3-30.1-16.3c-10.1-9.8-19.3-20.7-27.3-32.3L651,534c23.7,36.7,38.9,70.4,45.6,101.1
	c6.5,29.7,3.7,58.3-8.4,85.8c2.2,0,4.5-0.1,6.7-0.2c35.8-1.9,75-17.8,117.8-47.7c42.3-29.6,70.1-60,83.3-91.1s15.7-62.6,7.5-94.6
	c-8.2-32-23.6-64.1-46-96.1l-34.2-48.8l-122,85.4L742.9,487z"/>
<path class="st0" d="M608.5,66.6c-27-17.8-57.1-25.3-90.1-22.6S447.9,62.7,406,92c-42.8,30-71.2,61.3-85.4,94.1
	c-0.9,2.1-1.7,4.2-2.6,6.3c29.9-2.2,57.5,4.5,82.8,20.3c26.3,16.4,52.5,41.8,78.5,76.2l-6.3-9c-7.8-11.1-14.7-22.7-20.8-34.8
	c-5.7-11.6-7.9-23.1-6.5-34.5c1.4-11.4,8.6-21.6,21.6-30.7c13.5-9.4,25.4-12.7,35.7-9.9c10.3,2.8,19.6,9,27.9,18.4
	c8.6,9.8,16.7,20.1,24.2,30.8l39.6,56.5l122-85.4l-34.2-48.8C660.3,109.3,635.6,84.4,608.5,66.6z"/>
<path class="st1" d="M427.7,942.6l-406.8-581l147-103c50.7-35.5,94.6-56.8,131.7-63.9c37.1-7.1,70.8-1.1,101.2,17.8
	c30.4,19,60.7,50,90.8,93l147.7,210.9c30.5,43.5,49.6,83,57.4,118.6c7.8,35.5,2.2,69.5-16.7,102c-18.9,32.5-53.5,66.3-103.7,101.5
	L427.7,942.6z M493.9,763.8l20.1-14.1c19.6-13.7,31.7-26.5,36.3-38.2c4.6-11.8,3.9-24.1-1.9-37.1c-5.9-13-14.9-28.1-26.9-45.3
	L344.1,375.9c-12-17.2-23.1-30.2-33.1-38.8s-21-12.4-32.9-11.2c-11.9,1.2-27.5,8.6-46.6,22l-19.4,13.6L493.9,763.8z"/>
</svg>
