<svg width="481.6" height="481.6" xmlns="http://www.w3.org/2000/svg">

 <g>
  <title>background</title>
  <rect fill="none" id="canvas_background" height="402" width="582" y="-1" x="-1"/>
 </g>
 <g>
  <title>Layer 1</title>
  <g id="svg_1">
   <path fill="#ffffff" id="svg_2" d="m422.2,24.5l-362.8,0c-32.7,0 -59.4,26.6 -59.4,59.4l0,230.1c0,32.7 26.6,59.4 59.4,59.4l167.9,0l0,56.7l-83.7,0c-7.5,0 -13.5,6 -13.5,13.5s6,13.5 13.5,13.5l194.4,0c7.5,0 13.5,-6 13.5,-13.5s-6,-13.5 -13.5,-13.5l-83.7,0l0,-56.7l167.9,0c32.7,0 59.4,-26.6 59.4,-59.4l0,-230.1c0,-32.8 -26.6,-59.4 -59.4,-59.4zm-362.8,27l362.9,0c17.8,0 32.4,14.5 32.4,32.4l0,192.3l-427.7,0l0,-192.3c0,-17.9 14.5,-32.4 32.4,-32.4zm362.8,294.9l-362.8,0c-17.8,0 -32.4,-14.5 -32.4,-32.4l0,-10.8l427.6,0l0,10.8c0,17.8 -14.5,32.4 -32.4,32.4z"/>
  </g>
  <g id="svg_3"/>
  <g id="svg_4"/>
  <g id="svg_5"/>
  <g id="svg_6"/>
  <g id="svg_7"/>
  <g id="svg_8"/>
  <g id="svg_9"/>
  <g id="svg_10"/>
  <g id="svg_11"/>
  <g id="svg_12"/>
  <g id="svg_13"/>
  <g id="svg_14"/>
  <g id="svg_15"/>
  <g id="svg_16"/>
  <g id="svg_17"/>
 </g>
</svg>