<svg id="Layer_1" data-name="Layer 1" xmlns="http://www.w3.org/2000/svg" viewBox="0 0 929.28 986"><defs><style>.cls-1{fill:#820263;}.cls-2{fill:#04a777;}</style></defs><title>logo</title><path class="cls-1" d="M757.33,725.49a429.11,429.11,0,0,1-3.55,55.63q-3.56,27.25-17.76,44.39t-47.34,17.16q-30.79,0-46.76-16t-21.3-42.62a298.51,298.51,0,0,1-5.33-58.59V705.74q-3.42,91-28.67,151.53-24.37,58.43-78,91,3.84,2.63,7.83,5.13Q579.76,993,688.68,993q107.7,0,167.49-37.28t84-101.8q24.24-64.5,24.26-146.18V624.88H757.33Z" transform="translate(-35.19 -7)"/><path class="cls-1" d="M939.62,139.57Q914.76,76.84,855,41.92T688.68,7Q579.77,7,516.45,46.06q-4,2.49-7.92,5.11,53.78,32,78.09,89.13,25.26,59.49,28.67,149.44V274.51a364.71,364.71,0,0,1,4.14-56.22q4.14-26.64,20.12-44.39t49.13-17.76q34.32,0,48.53,17.17t17.16,43.2a485.51,485.51,0,0,1,3,54.45v95.88H964.47V284Q964.47,202.31,939.62,139.57Z" transform="translate(-35.19 -7)"/><path class="cls-2" d="M35.19,993V7H284.73q129,0,200.85,32.26t101,101q29.21,68.79,29.21,178.33V676.51q0,110.78-29.21,180.76T486.19,960.13Q415,993,287.17,993ZM253.08,842.06h34.09q49.89,0,71.82-14.61t27.39-43.82q5.47-29.22,5.47-73V280.9q0-43.81-6.69-70.6t-28.61-39q-21.9-12.16-70.6-12.18H253.08Z" transform="translate(-35.19 -7)"/></svg>